<?xml version="1.0" standalone="no"?>
<!DOCTYPE svg PUBLIC "-//W3C//DTD SVG 20010904//EN"
 "http://www.w3.org/TR/2001/REC-SVG-20010904/DTD/svg10.dtd">
<svg version="1.0" xmlns="http://www.w3.org/2000/svg"
 width="212.000000pt" height="212.000000pt" viewBox="0 0 212.000000 212.000000"
 preserveAspectRatio="xMidYMid meet">
<metadata>
Created by potrace 1.11, written by Peter Selinger 2001-2013
</metadata>
<g transform="translate(0.000000,212.000000) scale(0.100000,-0.100000)"
fill="#000000" stroke="none">
<path d="M22 1530 c-6 -15 -6 -33 -2 -41 5 -7 6 -18 2 -24 -11 -17 -11 -35 -1
-41 6 -3 5 -11 -2 -20 -9 -11 -8 -14 2 -14 12 0 12 -2 0 -9 -9 -6 -10 -11 -2
-15 6 -4 8 -13 4 -19 -12 -19 -12 -36 -2 -43 6 -3 5 -11 -2 -20 -9 -11 -8 -14
2 -14 12 0 12 -2 0 -9 -9 -6 -10 -11 -2 -15 6 -4 8 -13 4 -19 -12 -19 -12 -36
-2 -43 6 -3 5 -11 -2 -20 -9 -11 -8 -14 2 -14 12 0 12 -2 0 -9 -9 -6 -10 -11
-2 -15 6 -4 8 -13 4 -19 -12 -19 -12 -36 -2 -43 6 -3 5 -11 -2 -20 -9 -11 -8
-14 2 -14 12 0 12 -2 0 -9 -9 -6 -10 -11 -2 -15 6 -4 8 -13 4 -19 -12 -19 -12
-36 -2 -43 6 -3 5 -11 -2 -20 -9 -11 -8 -14 2 -14 12 0 12 -2 0 -9 -9 -6 -10
-11 -2 -15 6 -4 8 -13 4 -19 -12 -19 -12 -36 -2 -43 6 -3 5 -11 -2 -20 -9 -11
-8 -14 2 -14 12 0 12 -2 0 -9 -9 -6 -10 -11 -2 -15 6 -4 8 -13 4 -19 -12 -19
-12 -36 -2 -43 6 -3 5 -11 -2 -20 -9 -11 -8 -14 2 -14 12 0 12 -2 0 -9 -9 -6
-10 -10 -2 -16 7 -4 8 -12 3 -18 -8 -11 -8 -25 -2 -44 1 -5 3 -14 4 -22 1 -13
46 -25 46 -12 0 3 91 5 202 3 156 -2 203 0 210 10 6 11 8 11 8 0 0 -10 5 -10
20 -2 11 6 25 8 30 5 6 -3 10 -1 10 4 0 6 11 11 25 11 14 0 25 5 25 12 0 6 3
8 7 5 3 -4 15 1 26 10 15 13 19 14 13 3 -4 -9 -2 -8 7 3 8 9 19 17 26 17 6 0
14 7 17 15 4 8 10 12 15 9 5 -3 9 2 9 10 0 9 6 15 13 13 6 -1 11 4 10 11 -2 6
4 12 12 12 17 0 37 34 27 45 -4 5 -1 5 6 1 6 -4 12 -2 12 4 0 6 5 8 13 4 9 -6
9 -4 -1 8 -10 13 -10 17 3 22 9 3 14 10 11 15 -3 5 2 12 11 15 15 6 15 8 3 16
-11 7 -12 10 -2 10 7 0 11 4 7 9 -3 5 -1 12 5 16 6 4 8 10 5 15 -3 5 -1 11 4
14 5 4 8 17 6 31 -1 14 1 25 4 25 4 0 6 16 6 35 -1 19 2 35 7 35 5 0 5 8 -1
17 -5 10 -5 26 0 40 6 15 5 23 -2 23 -6 0 -9 6 -6 14 3 8 1 17 -6 20 -9 3 -8
5 1 5 9 1 10 7 4 19 -4 9 -8 24 -7 32 0 8 -3 18 -8 21 -4 3 -9 17 -10 30 0 13
-5 27 -10 30 -4 3 -9 12 -11 20 -1 8 -8 25 -16 39 -8 14 -13 28 -12 33 1 4 -4
7 -10 7 -7 0 -24 16 -37 35 -13 19 -31 37 -41 40 -10 3 -21 13 -24 21 -3 8
-10 12 -16 9 -5 -3 -10 -3 -10 2 0 9 -61 39 -72 35 -5 -1 -8 2 -8 6 0 4 -12 9
-27 10 -15 1 -30 7 -34 13 -5 8 -9 8 -14 0 -5 -9 -13 -8 -31 4 -18 11 -24 12
-24 3 0 -9 -3 -8 -10 2 -5 8 -10 10 -10 4 0 -8 -13 -9 -40 -4 -22 4 -40 4 -40
0 0 -4 -18 -4 -40 0 -22 4 -40 4 -40 0 0 -4 -18 -4 -40 0 -22 4 -40 4 -40 0 0
-4 -18 -4 -40 0 -22 4 -40 4 -40 0 0 -4 -18 -4 -40 0 -36 7 -40 5 -48 -20z
m399 -155 c0 6 3 4 6 -3 2 -6 9 -9 14 -6 6 3 18 2 27 -2 20 -9 28 -11 43 -13
5 0 7 -5 4 -11 -3 -6 1 -7 9 -4 18 7 106 -78 106 -101 0 -8 5 -15 11 -15 5 0
8 -4 4 -9 -3 -5 -1 -12 5 -16 6 -4 8 -11 5 -16 -4 -5 -1 -9 6 -9 7 0 10 -11 7
-30 -3 -16 -1 -30 2 -30 4 0 6 -12 6 -27 -1 -16 3 -34 8 -40 5 -8 4 -13 -3
-13 -7 0 -10 -4 -7 -8 3 -4 0 -26 -5 -48 -6 -21 -11 -45 -11 -51 -1 -7 -5 -13
-10 -13 -4 0 -7 -3 -7 -7 4 -25 -2 -43 -13 -37 -7 5 -9 2 -5 -9 4 -10 -3 -21
-19 -31 -13 -9 -24 -23 -24 -31 0 -8 -3 -14 -7 -13 -14 3 -63 -25 -58 -32 3
-5 -8 -7 -24 -6 -17 1 -28 -1 -25 -5 2 -4 -14 -7 -36 -7 -23 0 -44 -2 -47 -6
-3 -3 -12 -1 -20 5 -9 8 -13 8 -13 1 0 -7 -10 -8 -30 -2 -18 5 -30 5 -30 0 0
-6 -10 -6 -22 -1 -13 4 -29 6 -37 3 -10 -3 -12 1 -8 17 3 12 0 21 -6 21 -8 0
-7 4 2 9 9 6 10 11 2 15 -6 4 -8 13 -4 19 10 17 10 51 -1 58 -4 4 -3 16 3 28
8 15 9 21 1 21 -6 0 -8 5 -3 13 11 18 12 36 2 42 -4 3 -4 16 1 30 6 16 5 25
-2 27 -8 3 -7 10 1 26 9 17 9 22 0 22 -7 0 -8 4 -2 13 8 11 10 29 3 42 -6 13
-6 32 2 48 6 11 5 17 -2 17 -6 0 -8 5 -3 13 10 16 10 38 1 58 -4 9 -4 19 -1
23 11 10 11 46 0 46 -5 0 -4 7 3 15 7 8 16 12 21 9 5 -3 9 -2 9 3 0 4 38 6 85
3 53 -3 85 -1 86 5z"/>
<path d="M1210 1552 c0 -4 -28 -5 -61 -4 -43 3 -59 1 -55 -7 4 -6 3 -11 -2
-11 -5 0 -6 -17 -2 -40 4 -22 4 -40 1 -40 -4 0 -4 -27 -1 -60 3 -33 3 -60 0
-60 -3 0 -3 -27 0 -60 3 -33 3 -60 -1 -60 -3 0 -3 -18 1 -40 4 -22 4 -40 1
-40 -4 0 -4 -27 -1 -60 3 -33 3 -60 0 -60 -3 0 -3 -27 0 -60 3 -33 3 -60 -1
-60 -4 0 -4 -13 1 -30 5 -19 5 -30 -1 -30 -6 0 -5 -8 1 -20 8 -14 8 -20 0 -20
-8 0 -8 -6 0 -20 8 -14 8 -20 0 -20 -8 0 -8 -6 0 -20 6 -12 7 -20 1 -20 -6 0
-6 -11 -1 -30 5 -16 6 -30 2 -30 -4 0 -5 -22 -4 -50 l4 -50 88 0 c107 0 124 5
109 31 -7 14 -6 19 3 19 9 0 9 3 -2 10 -11 7 -11 10 -2 10 10 0 10 5 2 20 -8
15 -8 20 2 20 9 0 9 3 -2 10 -8 5 -10 10 -4 10 8 0 9 11 4 35 -4 19 -4 35 0
35 5 0 5 14 0 30 -5 17 -6 30 -2 30 11 0 8 234 -3 242 -7 5 -7 8 0 8 6 0 9 23
8 55 -2 31 1 55 7 55 6 0 10 -7 10 -16 0 -9 5 -12 13 -8 6 4 9 3 4 -1 -4 -5 1
-17 10 -28 10 -11 12 -17 6 -13 -7 4 -13 2 -13 -3 0 -6 5 -11 10 -11 6 0 10
-7 10 -15 0 -8 5 -15 10 -15 6 0 10 -9 10 -20 0 -11 5 -20 10 -20 6 0 10 -7
10 -15 0 -8 5 -15 11 -15 5 0 7 -4 4 -10 -3 -5 -1 -10 5 -10 7 0 10 -6 7 -12
-2 -7 3 -19 12 -26 13 -11 13 -12 1 -7 -13 6 -13 5 0 -7 8 -7 16 -20 18 -28 2
-8 8 -16 13 -18 5 -2 9 -12 9 -23 0 -10 5 -19 11 -19 5 0 7 -5 4 -10 -3 -6 1
-13 9 -16 9 -3 14 -10 11 -14 -3 -5 1 -15 9 -22 7 -8 17 -24 21 -37 4 -14 10
-19 14 -13 4 7 12 8 21 2 8 -5 21 -5 32 1 12 7 18 6 18 -1 0 -7 5 -8 13 -3 12
8 18 10 39 12 6 0 8 4 5 7 -3 4 -1 16 5 28 7 11 12 25 13 29 0 4 7 12 15 17 8
5 12 10 7 10 -10 0 63 140 74 140 4 0 6 7 3 15 -4 8 1 17 9 21 9 3 13 12 10
20 -3 7 3 17 12 20 13 5 14 9 3 15 -10 7 -9 9 4 9 11 0 15 5 12 15 -4 8 -1 15
5 15 6 0 11 7 11 15 0 8 5 15 10 15 6 0 10 5 10 11 0 5 -6 7 -12 3 -9 -5 -8
-2 1 9 19 24 45 4 30 -24 -7 -13 -6 -19 1 -19 7 0 7 -7 -1 -21 -9 -17 -8 -23
2 -30 11 -7 11 -9 -1 -9 -9 0 -11 -3 -5 -8 14 -10 17 -32 5 -32 -6 0 -6 -9 -1
-23 6 -14 5 -30 -1 -41 -6 -10 -6 -21 -2 -25 12 -8 16 -31 6 -31 -4 0 -7 -16
-7 -35 0 -19 4 -35 8 -35 4 0 3 -9 -3 -20 -8 -14 -8 -20 0 -20 8 0 8 -6 0 -20
-8 -14 -8 -20 0 -20 8 0 8 -6 0 -20 -8 -14 -8 -20 0 -20 8 0 8 -6 0 -20 -8
-14 -8 -20 0 -20 8 0 8 -6 0 -20 -8 -14 -8 -20 0 -20 8 0 8 -6 0 -20 -8 -14
-8 -20 0 -20 6 0 8 -4 5 -10 -4 -6 32 -10 100 -10 l106 0 -3 120 c-2 66 -1
120 2 120 3 0 3 27 0 60 -3 33 -3 60 0 60 3 0 3 36 0 80 -3 44 -2 80 1 80 3 0
3 23 -1 50 -4 28 -3 50 2 50 5 0 4 9 -2 20 -8 14 -8 20 0 20 8 0 8 6 0 20 -8
14 -8 20 0 20 8 0 8 6 0 20 -6 12 -7 20 -1 20 6 0 6 11 1 30 -5 17 -5 30 -1
30 4 0 4 27 1 60 -3 33 -3 60 0 60 3 0 4 18 2 39 -4 37 -6 39 -43 43 -21 2
-39 1 -39 -3 0 -3 -18 -3 -40 1 -22 4 -40 4 -40 0 0 -4 -12 -5 -26 -2 -17 3
-31 -2 -45 -16 -22 -24 -25 -36 -6 -27 6 4 2 -2 -11 -12 -13 -10 -24 -29 -25
-41 0 -12 -7 -24 -14 -26 -7 -3 -13 -12 -13 -21 0 -8 -5 -15 -11 -15 -5 0 -7
-5 -4 -10 3 -6 -1 -17 -9 -26 -9 -9 -14 -20 -11 -25 4 -5 1 -9 -4 -9 -6 0 -11
-7 -11 -15 0 -8 -4 -15 -9 -15 -5 0 -12 -13 -16 -30 -4 -16 -11 -30 -16 -30
-5 0 -9 -9 -9 -20 0 -11 -3 -20 -7 -20 -5 0 -16 -20 -26 -45 -11 -25 -23 -45
-29 -45 -5 0 -6 -4 -3 -10 3 -5 1 -10 -5 -10 -6 0 -8 -5 -5 -10 3 -6 -1 -13
-10 -16 -9 -4 -14 -13 -11 -20 3 -8 1 -14 -5 -14 -6 0 -7 -4 -4 -10 3 -6 -1
-7 -9 -4 -9 3 -16 12 -16 19 0 13 -30 77 -40 85 -3 3 -14 22 -23 43 -10 20
-22 37 -27 37 -4 0 -6 10 -3 23 3 12 2 19 -2 15 -9 -8 -35 36 -35 58 0 8 -5
14 -11 14 -5 0 -8 4 -4 9 3 5 1 12 -5 16 -6 4 -8 11 -5 16 4 5 -1 9 -10 9 -9
0 -13 5 -9 11 3 6 2 14 -3 18 -15 10 -54 83 -41 76 7 -4 4 1 -6 9 -11 9 -17
19 -13 22 4 4 -1 13 -11 21 -11 9 -11 12 -2 7 8 -4 6 2 -5 13 -24 23 -55 36
-55 23 0 -5 -13 -5 -30 0 -16 5 -30 6 -30 2z"/>
</g>
</svg>
